<svg width="16" height="20" viewBox="0 0 16 20" fill="none" xmlns="http://www.w3.org/2000/svg">
<g id="Group">
<path id="Vector" d="M13.009 0C13.009 0 11.3635 1.59647 9.58387 2.24012C-3.59491 7.00693 1.96314 16.2961 2.14447 16.3267C2.14447 16.3267 2.88347 15.0398 3.88175 14.3058C10.2164 9.64887 11.5039 4.28854 11.5039 4.28854C11.5039 4.28854 10.0824 10.7387 4.44679 14.7522C3.20208 15.6382 2.35927 17.8197 2.0025 20C2.0025 20 2.88481 19.6435 3.26422 19.547C3.41217 18.5815 3.7215 17.657 4.24446 16.8311C12.1209 17.7689 14.7006 11.4221 15.0376 9.20907C15.833 3.98229 13.009 0 13.009 0Z" fill="#E2B184"/>
</g>
</svg>
