<svg width="48" height="48" viewBox="0 0 48 48" fill="none" xmlns="http://www.w3.org/2000/svg">
<path d="M27.9488 32.4038H7.6374C6.68425 32.4038 5.90875 31.6283 5.90875 30.6752V20.2008H39.5416V23.2777C39.5416 23.6754 39.8639 23.9977 40.2616 23.9977C40.6593 23.9977 40.9816 23.6754 40.9816 23.2777V11.6101C40.9816 9.86284 39.5601 8.44141 37.8129 8.44141H7.6374C5.89018 8.44141 4.46875 9.86284 4.46875 11.6101V30.6751C4.46875 32.4224 5.89018 33.8438 7.6374 33.8438H27.9488C28.3465 33.8438 28.6688 33.5215 28.6688 33.1238C28.6688 32.7261 28.3465 32.4038 27.9488 32.4038ZM5.90874 18.7608V15.911H39.5416V18.7608H5.90874ZM7.6374 9.88141H37.8129C38.7661 9.88141 39.5416 10.6569 39.5416 11.6101V14.471H5.90874V11.6101C5.90874 10.6569 6.68425 9.88141 7.6374 9.88141Z" fill="#E2B184"/>
<path d="M9.24344 22.5576C8.84575 22.5576 8.52344 22.8799 8.52344 23.2776V28.6189C8.52344 29.0166 8.84575 29.3389 9.24344 29.3389H15.9362C16.3339 29.3389 16.6562 29.0166 16.6562 28.6189V23.2776C16.6562 22.8799 16.3339 22.5576 15.9362 22.5576H9.24344ZM15.2162 27.8989H9.96344V23.9976H15.2162V27.8989Z" fill="#E2B184"/>
<path d="M27.3887 27.8994H25.3294C24.9317 27.8994 24.6094 28.2217 24.6094 28.6194C24.6094 29.0171 24.9317 29.3394 25.3294 29.3394H27.3887C27.7864 29.3394 28.1087 29.0171 28.1087 28.6194C28.1087 28.2217 27.7864 27.8994 27.3887 27.8994Z" fill="#E2B184"/>
<path d="M27.3884 24.3604H20.3958C19.9981 24.3604 19.6758 24.6827 19.6758 25.0804C19.6758 25.478 19.9981 25.8004 20.3958 25.8004H27.3884C27.7861 25.8004 28.1084 25.478 28.1084 25.0804C28.1084 24.6827 27.7861 24.3604 27.3884 24.3604Z" fill="#E2B184"/>
<path d="M43.3868 26.9C43.3611 26.6176 43.1721 26.3766 42.9039 26.2843L36.8212 24.1916C36.6696 24.1393 36.5046 24.1392 36.3528 24.1916L30.2705 26.284C30.0023 26.3763 29.8133 26.6173 29.7876 26.8998C29.6157 28.7929 29.4494 33.5256 31.6115 36.577C32.7244 38.1478 34.3094 39.1027 36.4571 39.4964C36.5001 39.5043 36.5436 39.5082 36.587 39.5082C36.6304 39.5082 36.6739 39.5043 36.7168 39.4964C38.8644 39.1027 40.4495 38.1478 41.5623 36.577C43.725 33.5249 43.5586 28.7929 43.3868 26.9ZM40.3873 35.7445C39.5245 36.9626 38.2802 37.7194 36.587 38.0553C34.8937 37.7194 33.6494 36.9625 32.7865 35.7445C31.052 33.2966 31.0513 29.4427 31.185 27.4922L36.587 25.6339L41.9893 27.4925C42.123 29.4427 42.1224 33.296 40.3873 35.7445Z" fill="#E2B184"/>
<path d="M38.0683 29.8426L36.2167 31.6944L35.5886 31.0662C35.3073 30.7851 34.8515 30.7851 34.5702 31.0662C34.2891 31.3474 34.2891 31.8032 34.5702 32.0845L35.7075 33.2218C35.8481 33.3623 36.0325 33.4326 36.2167 33.4326C36.4009 33.4326 36.5852 33.3623 36.7258 33.2218L39.0866 30.861C39.3678 30.5797 39.3678 30.1239 39.0866 29.8426C38.8054 29.5616 38.3496 29.5616 38.0683 29.8426Z" fill="#E2B184"/>
</svg>
