<?xml version="1.0" encoding="UTF-8"?>
<svg xmlns="http://www.w3.org/2000/svg" xmlns:xlink="http://www.w3.org/1999/xlink" xml:space="preserve" width="3.95797in" height="3.95797in" version="1.1" style="shape-rendering:geometricPrecision; text-rendering:geometricPrecision; image-rendering:optimizeQuality; fill-rule:evenodd; clip-rule:evenodd" viewBox="0 0 686 686"> <defs> <style type="text/css"> .str0 {stroke:#B2012F;stroke-width:0.519736} .fil1 {fill:#B2012F;fill-rule:nonzero} .fil0 {fill:#F2BF4A;fill-rule:nonzero} </style> </defs> <g id="Layer_x0020_1"> <metadata id="CorelCorpID_0Corel-Layer"></metadata> <polygon class="fil0" points="686,0 0,0 0,686 686,686 "></polygon> <path class="fil1" d="M599 343c0,141 -115,256 -256,256 -141,0 -256,-115 -256,-256 0,-141 115,-256 256,-256 141,0 256,115 256,256z"></path> <path class="fil1 str0" d="M584 343c0,133 -108,241 -241,241 -133,0 -241,-108 -241,-241 0,-133 108,-241 241,-241 133,0 241,108 241,241z"></path> <path class="fil0" d="M236 340l-30 25 11 10 0 63c-4,-6 -10,-15 -16,-25 -8,-14 -32,-65 -32,-65l-23 28 12 3 0 69c0,6 -3,5 -5,5 -3,0 -13,0 -13,0l0 6c18,-1 17,18 17,18 0,0 20,-6 20,-22l0 -65c10,15 31,45 40,58l0 30c0,0 9,-11 22,-19 0,0 -3,-7 -3,-25 0,-18 1,-95 1,-95z"></path> <path class="fil0" d="M543 435c0,-18 1,-95 1,-95l-30 25 11 10 0 63c-4,-6 -10,-15 -16,-25 -8,-14 -32,-65 -32,-65l-23 28 12 3 0 69c0,6 -3,5 -5,5 -3,0 -13,0 -13,0l0 6c18,-1 17,18 17,18 0,0 20,-6 20,-22l0 -65c10,15 31,45 40,58l0 30c0,0 9,-11 22,-19 0,0 -3,-7 -3,-25z"></path> <path class="fil0" d="M318 212l-61 0 -15 -3 9 9 9 0 0 104c0,6 5,11 11,11l76 0c0,0 -7,-13 -11,-18 -3,-4 -7,7 -14,7l-41 0 0 -103 69 -1 0 -5 -19 -8 -12 8z"></path> <path class="fil0" d="M425 452c0,8 -2,7 -5,5 -4,-3 -11,-2 -16,-2l-24 0c-2,0 -3,-1 -4,-2 4,-2 11,-6 16,-9 7,-4 11,-9 11,-9 0,0 -4,-19 -8,-18 -4,1 2,5 -11,21 -5,6 -8,8 -10,10l0 -78 45 0c4,0 7,3 7,7l0 75zm19 -87c6,-4 14,-8 19,-10 0,0 -7,-19 -8,-22 0,0 -5,5 -7,6 -3,2 -11,5 -11,5l4 6 10 0 -10 8c-3,-2 -6,-3 -6,-3 0,0 -3,7 -7,7l-61 0 -13 -9c0,0 1,81 1,94 0,13 9,16 17,16l30 0c17,0 19,13 19,13 0,0 22,-4 22,-19 0,-14 0,-91 0,-91 0,-1 1,-2 1,-3z"></path> <path class="fil0" d="M322 411l-11 -17 -12 8c-2,2 -5,2 -8,2l-13 0 0 -44c0,-8 5,-12 5,-12l-10 -8c0,0 -7,11 -13,11l-9 0 -6 6 14 0 0 48 -23 0 11 15c0,0 4,-8 10,-8l2 0 0 50c0,19 -9,27 -9,27l28 -14 0 -62 44 0z"></path> <path class="fil0" d="M326 349l-9 0 -6 6 14 0 0 61 0 0 0 31c0,6 -3,6 -5,7 -3,0 -10,0 -10,0l-5 5c17,-1 18,18 18,18 0,0 20,-6 20,-21l0 -97c0,-8 5,-12 5,-12l-10 -8c0,0 -7,11 -13,11z"></path> <path class="fil0" d="M414 238c4,0 7,3 7,7l0 75c0,8 -2,7 -5,5 -4,-3 -11,-2 -16,-2l-24 0c-3,0 -5,-2 -6,-5 3,-2 13,-7 18,-10 7,-4 11,-9 11,-9 0,0 -4,-19 -8,-18 -4,1 2,5 -11,21 -5,6 -9,9 -11,10l0 -74 45 0zm-47 94l30 0c17,0 19,13 19,13 0,0 22,-4 22,-19 0,-14 0,-91 0,-91 2,-2 6,-2 6,-2 -2,-1 -14,-11 -14,-11 0,0 -3,7 -7,7l-61 0 -13 -6c0,0 1,78 1,92 0,13 9,16 17,16z"></path> <path class="fil0" d="M369 220l-7 0c4,6 20,5 20,5 1,-13 14,-23 15,-23l0 0 1 1c12,19 34,17 34,17 -15,-3 -21,-21 -21,-21l-7 0c0,-8 0,-18 1,-24 0,0 -18,-2 -20,-2 0,0 3,6 4,8 1,3 -3,12 -3,12l6 -1 5 -8 2 16 -28 0c0,3 7,4 11,4l9 0c-9,6 -18,17 -18,17z"></path> </g> </svg>
