<svg width="24" height="24" viewBox="0 0 24 24" fill="none" xmlns="http://www.w3.org/2000/svg">
<g id="fi_3870922">
<path id="Vector" d="M22.9623 4.73856C22.2899 3.67231 21.3051 2.83932 20.1421 2.35309C18.8244 1.79997 17.3443 1.7004 15.862 2.06589C14.5037 2.40086 13.1806 3.12737 12 4.18131C10.8192 3.12728 9.49599 2.40072 8.13746 2.06579C6.65513 1.70017 5.17496 1.79982 3.85721 2.35332C2.69419 2.8397 1.70944 3.67287 1.03716 4.73926C0.333099 5.85226 -0.025073 7.20578 0.00136453 8.65333C0.11874 15.0886 9.70477 20.9403 11.6252 22.0481C11.7392 22.1138 11.8684 22.1484 12 22.1484C12.1315 22.1484 12.2608 22.1138 12.3747 22.0481C14.2954 20.9402 23.8823 15.0874 23.9986 8.6522C24.0248 7.20475 23.6664 5.85137 22.9623 4.73856ZM22.4989 8.62525C22.4614 10.7059 21.0743 13.1318 18.4881 15.6403C16.093 17.9634 13.3687 19.7143 12 20.5291C10.6312 19.7145 7.9073 17.9637 5.51246 15.6406C2.92608 13.1322 1.53905 10.7066 1.50108 8.62595C1.45965 6.35406 2.5576 4.52617 4.43808 3.73628C5.05438 3.47886 5.71602 3.34756 6.38391 3.35012C8.10868 3.35012 9.93315 4.18506 11.4652 5.7429C11.535 5.81387 11.6182 5.87024 11.71 5.90871C11.8018 5.94719 11.9003 5.96701 11.9999 5.96701C12.0994 5.96701 12.198 5.94719 12.2898 5.90871C12.3816 5.87024 12.4648 5.81387 12.5346 5.7429C14.663 3.57868 17.3557 2.80979 19.5612 3.73614C21.4418 4.52575 22.5399 6.35336 22.4989 8.62511V8.62525Z" fill="white"/>
</g>
</svg>
