<svg width="18" height="20" viewBox="0 0 18 20" fill="none" xmlns="http://www.w3.org/2000/svg">
<g id="Group">
<g id="Layer_5_21_">
<g id="Group_2">
<path id="Vector" d="M17.4642 16.9934C17.4642 16.9934 15.2444 13.1783 14.8462 12.494C15.2992 12.3558 15.7818 12.2338 15.9823 11.8875C16.3165 11.3106 15.7217 10.3642 15.8779 9.74587C16.0388 9.10945 16.9886 8.55875 16.9886 7.91185C16.9886 7.28159 16.0066 6.54529 15.8456 5.9126C15.6883 5.29435 16.2814 4.34694 15.9461 3.77073C15.6109 3.19447 14.4942 3.24181 14.0345 2.79948C13.5615 2.34429 13.563 1.23057 12.9925 0.925522C12.4197 0.619339 11.4888 1.23814 10.8528 1.09156C10.224 0.946654 9.66232 0 9.00558 0C8.33911 0 7.27906 1.07383 7.11281 1.11247C6.47715 1.26024 5.54503 0.642958 4.97282 0.950438C4.40288 1.25651 4.4064 2.37034 3.93429 2.82629C3.47536 3.26943 2.35862 3.22414 2.02439 3.80105C1.69021 4.37785 2.28506 5.32402 2.12891 5.94271C1.97234 6.56297 0.989416 7.19144 0.989416 7.90877C0.989416 8.55572 1.94164 9.10469 2.10351 9.74079C2.26085 10.359 1.66778 11.3063 2.00304 11.8828C2.18556 12.1965 2.59967 12.3253 3.01325 12.4491C3.06152 12.4636 3.1528 12.5176 3.09097 12.6077C2.80803 13.096 0.530709 17.0264 0.530709 17.0264C0.349539 17.339 0.496658 17.607 0.857538 17.6222L2.624 17.6958C2.98488 17.711 3.43758 17.9732 3.63021 18.2788L4.57281 19.7745C4.76544 20.08 5.07108 20.0743 5.2522 19.7618C5.2522 19.7618 7.88959 15.2084 7.89067 15.2071C7.94358 15.1453 7.99677 15.158 8.02222 15.1796C8.31079 15.4253 8.71307 15.6704 9.04881 15.6704C9.37808 15.6704 9.68296 15.4397 9.98455 15.1824C10.0091 15.1614 10.0688 15.1186 10.1125 15.2075C10.1132 15.209 12.7477 19.7374 12.7477 19.7374C12.9293 20.0496 13.235 20.0549 13.427 19.7489L14.3669 18.2514C14.559 17.9457 15.0113 17.6824 15.3721 17.6667L17.1384 17.5897C17.4991 17.5739 17.6458 17.3055 17.4642 16.9934ZM11.9249 12.8976C9.9718 14.0338 7.62745 13.9121 5.83684 12.7826C3.21307 11.102 2.34976 7.62539 3.92704 4.90304C5.52233 2.14928 9.02914 1.1776 11.8077 2.6909C11.8223 2.69884 11.8367 2.70706 11.8512 2.71517C11.8718 2.72657 11.8923 2.73814 11.9128 2.74981C12.77 3.24403 13.5134 3.9613 14.0456 4.87618C15.6724 7.67241 14.7211 11.2708 11.9249 12.8976Z" fill="#E2B184"/>
<path id="Vector_2" d="M11.4783 3.57232C11.4701 3.56761 11.4619 3.56324 11.4538 3.55859C9.96955 2.69955 8.07775 2.63674 6.49225 3.55918C4.13942 4.92801 3.33881 7.95573 4.70763 10.3085C5.12532 11.0265 5.69769 11.5996 6.35805 12.0109C6.4142 12.0465 6.47101 12.0815 6.52906 12.1151C8.88442 13.4796 11.9105 12.6735 13.275 10.3183C14.6395 7.96292 13.8336 4.93687 11.4783 3.57232ZM12.0675 7.42276L11.2428 8.22662C10.9873 8.47557 10.8277 8.96698 10.888 9.31856L11.0827 10.4536C11.143 10.8052 10.9341 10.957 10.6183 10.791L9.59894 10.2551C9.28319 10.0891 8.76654 10.0891 8.45079 10.2551L7.43144 10.791C7.1157 10.957 6.90669 10.8052 6.96701 10.4536L7.16169 9.31856C7.22201 8.96698 7.06235 8.47557 6.80692 8.22662L5.98225 7.42276C5.72676 7.17382 5.80665 6.92812 6.15964 6.87677L7.2993 6.71117C7.65229 6.65987 8.07029 6.35618 8.22817 6.03632L8.73784 5.00362C8.89572 4.68376 9.15407 4.68376 9.31189 5.00362L9.82162 6.03632C9.97949 6.35618 10.3974 6.65987 10.7505 6.71117L11.8902 6.87677C12.2431 6.92812 12.3229 7.17382 12.0675 7.42276Z" fill="#E2B184"/>
</g>
</g>
</g>
</svg>
