<svg width="32" height="32" viewBox="0 0 32 32" fill="none" xmlns="http://www.w3.org/2000/svg">
<path fill-rule="evenodd" clip-rule="evenodd" d="M16.3632 4.31282C14.089 4.23709 11.7914 4.85753 9.80779 6.18162C7.57988 7.67033 6.0229 9.86873 5.30575 12.3263C5.1077 12.3022 4.87055 12.3128 4.58895 12.3925C3.53757 12.6908 2.74681 13.5523 2.39126 14.311C1.9301 15.2998 1.73561 16.6076 1.94077 17.9576C2.1445 19.3034 2.71303 20.4127 3.42415 21.1014C4.13739 21.7905 4.94272 22.0145 5.74272 21.8463C6.93383 21.5921 7.52441 21.4019 7.35766 20.2922L6.55019 14.913C6.71303 12.0017 8.22023 9.26109 10.7411 7.57575C14.1153 5.32189 18.5392 5.46624 21.7577 7.937C23.9966 9.65362 25.2965 12.2257 25.4465 14.9258L24.8819 18.6886C23.6225 22.135 20.5004 24.5222 16.8876 24.8611H14.4819C13.8611 24.8611 13.3612 25.361 13.3612 25.9811V26.572C13.3612 27.1925 13.8611 27.6924 14.4819 27.6924H17.5152C18.1356 27.6924 18.6334 27.1925 18.6334 26.572V26.263C21.3577 25.5982 23.7356 23.9238 25.2841 21.5889L26.2558 21.8467C27.0465 22.0518 27.8615 21.7905 28.5744 21.1018C29.2855 20.4127 29.8537 19.3038 30.0577 17.958C30.2636 16.6079 30.0634 15.3023 29.6076 14.3114C29.15 13.3205 28.4684 12.6911 27.6816 12.4654C27.352 12.3704 26.9943 12.3356 26.6874 12.3263C26.0389 10.1041 24.7038 8.08313 22.7795 6.60757C20.8876 5.15584 18.6373 4.38749 16.3632 4.31282Z" fill="url(#paint0_linear_479_26656)"/>
<path fill-rule="evenodd" clip-rule="evenodd" d="M19.91 13.9904C20.7118 13.9904 21.3618 14.6403 21.3635 15.4442C21.3618 16.246 20.7118 16.8977 19.91 16.8977C19.1061 16.8977 18.4544 16.246 18.4544 15.4442C18.4544 14.6407 19.1065 13.9904 19.91 13.9904ZM15.9954 13.9904C16.7989 13.9904 17.4489 14.6403 17.4489 15.4442C17.4489 16.246 16.7989 16.8977 15.9954 16.8977C15.1911 16.8977 14.5411 16.246 14.5411 15.4442C14.5411 14.6407 15.1911 13.9904 15.9954 13.9904ZM12.0821 13.9904C12.8839 13.9904 13.5356 14.6403 13.5356 15.4442C13.5356 16.246 12.8839 16.8977 12.0821 16.8977C11.2786 16.8977 10.6283 16.246 10.6283 15.4442C10.6283 14.6407 11.2786 13.9904 12.0821 13.9904ZM15.9954 7.74609C11.7323 7.74609 8.29688 11.0684 8.29688 15.4442C8.29688 17.5459 9.09154 19.4033 10.3861 20.7662L9.92674 22.8256C9.77527 23.5033 10.2453 23.9591 10.8544 23.6199L12.8654 22.4981C13.8211 22.913 14.8782 23.1424 15.9954 23.1424C20.2599 23.1424 23.6931 19.8222 23.6931 15.4442C23.6931 11.0684 20.2599 7.74609 15.9954 7.74609Z" fill="url(#paint1_linear_479_26656)"/>
<defs>
<linearGradient id="paint0_linear_479_26656" x1="1.85937" y1="4.30664" x2="31.5813" y2="6.31217" gradientUnits="userSpaceOnUse">
<stop stop-color="#D0A862"/>
<stop offset="0.411458" stop-color="#F3D283"/>
<stop offset="0.71875" stop-color="#D0A862"/>
<stop offset="1" stop-color="#F3D283"/>
</linearGradient>
<linearGradient id="paint1_linear_479_26656" x1="8.29687" y1="7.74609" x2="24.5055" y2="8.61703" gradientUnits="userSpaceOnUse">
<stop stop-color="#D0A862"/>
<stop offset="0.411458" stop-color="#F3D283"/>
<stop offset="0.71875" stop-color="#D0A862"/>
<stop offset="1" stop-color="#F3D283"/>
</linearGradient>
</defs>
</svg>
