<svg width="49" height="48" viewBox="0 0 49 48" fill="none" xmlns="http://www.w3.org/2000/svg">
<g id="Group">
<path id="Vector" d="M35.1493 47.0548C34.7609 47.0548 34.4461 46.7401 34.4461 46.3517V44.2415C34.4461 44.0589 34.5171 43.8835 34.6441 43.7524L46.1038 31.9171C46.7422 31.2579 47.0938 30.3893 47.0938 29.4715V21.6648C47.0938 21.3308 47.0462 20.999 46.9526 20.6785L44.9568 13.8504C44.5178 12.3483 43.9542 12.1535 43.4097 12.1628C42.8623 12.174 42.4408 12.3874 42.1212 12.8151C41.5839 13.5339 41.4188 14.8053 41.7196 15.9069L42.9621 20.4562C43.0644 20.8307 42.8437 21.2173 42.4691 21.3197C42.0945 21.4223 41.7078 21.2012 41.6055 20.8266L40.3631 16.2773C39.9428 14.7384 40.1908 13.0489 40.9948 11.9732C41.5744 11.1976 42.3995 10.7769 43.3808 10.7568C43.403 10.7563 43.4251 10.756 43.447 10.756C45.5177 10.756 46.1104 12.7844 46.3066 13.4557L48.3024 20.2839C48.4335 20.7325 48.5 21.1971 48.5 21.6647V29.4714C48.5 30.7563 48.0078 31.9722 47.1141 32.8952L35.8524 44.5261V46.3517C35.8524 46.7401 35.5376 47.0548 35.1493 47.0548ZM25.9062 47.0548C25.5179 47.0548 25.2031 46.7401 25.2031 46.3517V41.3793C25.2031 38.7639 25.3018 36.4277 26.5153 34.3224C27.7589 32.1644 30.0177 30.4826 33.8294 28.88L38.3752 24.1554C40.0068 22.4597 42.2513 22.0162 43.8338 23.0766C44.5369 23.5479 44.971 24.2435 45.0561 25.0356C45.1633 26.0331 44.7118 27.1131 43.7846 28.0767L37.9244 34.1675C37.6553 34.4473 37.2102 34.456 36.9302 34.1866C36.6504 33.9174 36.6418 33.4723 36.911 33.1925L42.7711 27.1017C43.405 26.443 43.7199 25.7626 43.6578 25.1859C43.6167 24.8038 43.4125 24.4872 43.0507 24.2448C42.2278 23.6932 40.7308 23.735 39.3884 25.1304L34.7416 29.96C34.6747 30.0295 34.5942 30.0846 34.505 30.1217C26.9759 33.2536 26.6093 36.2873 26.6093 41.3794V46.3518C26.6094 46.7401 26.2946 47.0548 25.9062 47.0548ZM23.0938 47.0548C22.7054 47.0548 22.3906 46.7401 22.3906 46.3517V41.3793C22.3906 37.3468 22.1348 34.7213 18.5889 32.2667C18.2696 32.0456 18.19 31.6076 18.411 31.2883C18.6321 30.969 19.0699 30.8893 19.3894 31.1104C23.4808 33.9428 23.797 37.1531 23.797 41.3793V46.3517C23.7969 46.7401 23.4822 47.0548 23.0938 47.0548ZM13.8507 47.0548C13.4624 47.0548 13.1476 46.7401 13.1476 46.3517V44.5261L1.88591 32.8953C0.992188 31.9723 0.5 30.7564 0.5 29.4715V21.6648C0.5 21.1973 0.566469 20.7327 0.697625 20.2839L2.69338 13.4558C2.89166 12.7775 3.49447 10.7159 5.61922 10.7569C6.6005 10.777 7.42559 11.1976 8.00525 11.9733C8.80925 13.0491 9.05722 14.7385 8.63694 16.2774L7.33559 21.0426V22.5117C8.47016 22.5825 9.65572 23.1479 10.6249 24.1553L15.1707 28.8799C15.92 29.1952 16.6177 29.5183 17.2465 29.8413C17.5918 30.0188 17.7281 30.4425 17.5506 30.788C17.373 31.1334 16.9494 31.2696 16.6038 31.0921C15.9707 30.7669 15.2611 30.4404 14.4948 30.1215C14.4057 30.0844 14.3251 30.0294 14.2583 29.9598L9.61147 25.1302C8.26906 23.7348 6.77197 23.6929 5.94922 24.2446C5.58744 24.487 5.38316 24.8036 5.34209 25.1857C5.28012 25.7623 5.59503 26.4428 6.22878 27.1015L12.0889 33.1923C12.3582 33.4721 12.3495 33.9173 12.0697 34.1864C11.7898 34.4558 11.3448 34.4471 11.0755 34.1673L5.21534 28.0765C4.28816 27.1129 3.83656 26.0328 3.94381 25.0354C4.02894 24.2434 4.46309 23.5478 5.16612 23.0764C5.40659 22.9152 5.66253 22.7889 5.92916 22.6961V20.9481C5.92916 20.8855 5.9375 20.8232 5.954 20.7628L7.28019 15.9067C7.58094 14.8051 7.41594 13.5337 6.87866 12.8149C6.55897 12.3872 6.13756 12.1738 5.59016 12.1626C5.04678 12.1519 4.48203 12.3481 4.043 13.8502L2.04744 20.6785C1.95378 20.999 1.90625 21.3308 1.90625 21.6648V29.4715C1.90625 30.3893 2.25781 31.2579 2.89625 31.9171L14.356 43.7524C14.4829 43.8834 14.554 44.0589 14.554 44.2415V46.3517C14.5539 46.7401 14.2391 47.0548 13.8507 47.0548ZM24.5 26.6023C24.3879 26.6023 24.2757 26.5755 24.1734 26.5219L13.5241 20.9361C13.2927 20.8147 13.1476 20.5748 13.1476 20.3134V7.23432C13.1476 6.97295 13.2927 6.73304 13.5241 6.61163L24.1734 1.02582C24.3778 0.91857 24.6221 0.918383 24.8266 1.02582L28.1669 2.77782C28.5108 2.9582 28.6434 3.38316 28.463 3.72704C28.2826 4.07101 27.8577 4.20338 27.5138 4.0231L24.5 2.44248L22.2083 3.64454L31.3438 8.43638L33.6356 7.23432L29.993 5.3237C29.6491 5.14332 29.5166 4.71835 29.6969 4.37448C29.8772 4.03051 30.3022 3.89813 30.6462 4.07841L35.4759 6.61163C35.7073 6.73304 35.8524 6.97295 35.8524 7.23432V20.3134C35.8524 20.5748 35.7073 20.8147 35.4759 20.9361L24.8266 26.5219C24.7243 26.5755 24.6121 26.6023 24.5 26.6023ZM25.2031 13.2453V24.7363L34.4461 19.8881V8.3971L32.047 9.65551V12.9968C32.047 13.2663 31.8928 13.5122 31.6502 13.6297L28.6118 15.1005C28.3938 15.206 28.1369 15.1918 27.9319 15.0634C27.7268 14.9348 27.6023 14.7098 27.6023 14.4677V11.987L25.2031 13.2453ZM14.5539 19.8882L23.7969 24.7364V13.2453L14.5539 8.3971V19.8882ZM29.0085 11.2493V13.3461L30.6407 12.5559V10.3931L29.0085 11.2493ZM15.3644 7.23432L24.5 12.0262L26.7917 10.8241L17.6562 6.03226L15.3644 7.23432ZM19.1698 5.23829L28.3054 10.0301L29.8302 9.23035L20.6946 4.43851L19.1698 5.23829Z" fill="#E2B184"/>
</g>
</svg>
