<svg width="48" height="48" viewBox="0 0 48 48" fill="none" xmlns="http://www.w3.org/2000/svg">
<g id="Group">
<g id="Group_2">
<g id="Group_3">
<path id="Vector" d="M37.1075 7.6232H38.0258C38.4131 7.6232 38.727 7.30923 38.727 6.92195C38.727 6.53467 38.4132 6.2207 38.0258 6.2207H37.1075C36.7202 6.2207 36.4062 6.53467 36.4062 6.92195C36.4062 7.30923 36.7201 7.6232 37.1075 7.6232Z" fill="#E2B184"/>
<path id="Vector_2" d="M42.0723 7.6232H42.9906C43.3779 7.6232 43.6919 7.30923 43.6919 6.92195C43.6919 6.53467 43.378 6.2207 42.9906 6.2207H42.0723C41.6851 6.2207 41.3711 6.53467 41.3711 6.92195C41.3711 7.30923 41.6851 7.6232 42.0723 7.6232Z" fill="#E2B184"/>
<path id="Vector_3" d="M17.0141 22.4229H16.0958C15.7085 22.4229 15.3945 22.7368 15.3945 23.1241C15.3945 23.5114 15.7085 23.8254 16.0958 23.8254H17.0141C17.4013 23.8254 17.7153 23.5114 17.7153 23.1241C17.7153 22.7368 17.4013 22.4229 17.0141 22.4229Z" fill="#E2B184"/>
<path id="Vector_4" d="M21.0606 23.8254H21.9789C22.3662 23.8254 22.6802 23.5114 22.6802 23.1241C22.6802 22.7368 22.3662 22.4229 21.9789 22.4229H21.0606C20.6733 22.4229 20.3594 22.7368 20.3594 23.1241C20.3594 23.5114 20.6733 23.8254 21.0606 23.8254Z" fill="#E2B184"/>
<path id="Vector_5" d="M26.0216 23.8254H26.9398C27.3271 23.8254 27.6411 23.5114 27.6411 23.1241C27.6411 22.7368 27.3272 22.4229 26.9398 22.4229H26.0216C25.6343 22.4229 25.3203 22.7368 25.3203 23.1241C25.3204 23.5114 25.6343 23.8254 26.0216 23.8254Z" fill="#E2B184"/>
<path id="Vector_6" d="M30.9864 23.8254H31.9047C32.292 23.8254 32.6059 23.5114 32.6059 23.1241C32.6059 22.7368 32.2921 22.4229 31.9047 22.4229H30.9864C30.5991 22.4229 30.2852 22.7368 30.2852 23.1241C30.2852 23.5114 30.5991 23.8254 30.9864 23.8254Z" fill="#E2B184"/>
<path id="Vector_7" d="M18.5762 20.7326H19.4945C19.8818 20.7326 20.1958 20.4186 20.1958 20.0313C20.1958 19.644 19.8818 19.3301 19.4945 19.3301H18.5762C18.189 19.3301 17.875 19.644 17.875 20.0313C17.875 20.4186 18.189 20.7326 18.5762 20.7326Z" fill="#E2B184"/>
<path id="Vector_8" d="M23.5411 20.7326H24.4594C24.8467 20.7326 25.1606 20.4186 25.1606 20.0313C25.1606 19.644 24.8468 19.3301 24.4594 19.3301H23.5411C23.1538 19.3301 22.8398 19.644 22.8398 20.0313C22.8398 20.4186 23.1538 20.7326 23.5411 20.7326Z" fill="#E2B184"/>
<path id="Vector_9" d="M28.502 20.7326H29.4204C29.8077 20.7326 30.1217 20.4186 30.1217 20.0313C30.1217 19.644 29.8078 19.3301 29.4204 19.3301H28.502C28.1148 19.3301 27.8008 19.644 27.8008 20.0313C27.8008 20.4186 28.1147 20.7326 28.502 20.7326Z" fill="#E2B184"/>
<path id="Vector_10" d="M38.5316 21.0971H41.1135C41.6262 21.0971 42.0434 20.6799 42.0434 20.1671V17.9503C42.0434 16.7258 41.0472 15.7295 39.8225 15.7295C38.5979 15.7295 37.6016 16.7258 37.6016 17.9503V20.1671C37.6016 20.6799 38.0187 21.0971 38.5316 21.0971ZM39.0041 17.9502C39.0041 17.4989 39.3712 17.1318 39.8225 17.1318C40.2738 17.1318 40.6409 17.4989 40.6409 17.9502V19.6946H39.004V17.9502H39.0041Z" fill="#E2B184"/>
<path id="Vector_11" d="M39.8225 31.7637C38.5979 31.7637 37.6016 32.76 37.6016 33.9845V36.2013C37.6016 36.7141 38.0187 37.1312 38.5315 37.1312H41.1134C41.6262 37.1312 42.0433 36.714 42.0433 36.2013V33.9845C42.0434 32.76 41.0471 31.7637 39.8225 31.7637ZM40.6409 35.7288H39.004V33.9845C39.004 33.5332 39.3711 33.1661 39.8224 33.1661C40.2737 33.1661 40.6408 33.5332 40.6408 33.9845V35.7288H40.6409Z" fill="#E2B184"/>
<path id="Vector_12" d="M40.9849 24.4054C40.9849 24.0181 40.6711 23.7041 40.2837 23.7041H39.3653C38.978 23.7041 38.6641 24.0181 38.6641 24.4054C38.6641 24.7926 38.9779 25.1066 39.3653 25.1066H40.2837C40.671 25.1066 40.9849 24.7926 40.9849 24.4054Z" fill="#E2B184"/>
<path id="Vector_13" d="M37.4473 29.1564H38.3656C38.7529 29.1564 39.0669 28.8424 39.0669 28.4552C39.0669 28.0679 38.753 27.7539 38.3656 27.7539H37.4473C37.0601 27.7539 36.7461 28.0679 36.7461 28.4552C36.7461 28.8424 37.06 29.1564 37.4473 29.1564Z" fill="#E2B184"/>
<path id="Vector_14" d="M40.5781 28.4552C40.5781 28.8424 40.892 29.1564 41.2794 29.1564H42.1977C42.585 29.1564 42.899 28.8424 42.899 28.4552C42.899 28.0679 42.5851 27.7539 42.1977 27.7539H41.2794C40.8921 27.7539 40.5781 28.0679 40.5781 28.4552Z" fill="#E2B184"/>
<path id="Vector_15" d="M45.8673 41.8075H45.5022V10.7169L47.4106 8.06922C47.6748 7.70275 47.8144 7.27038 47.8144 6.81878V0.883937C47.8144 0.418094 47.4353 0.0390625 46.9695 0.0390625H44.3116C43.8457 0.0390625 43.4666 0.418094 43.4666 0.883937V2.87416H42.034V0.883937C42.034 0.418094 41.655 0.0390625 41.1891 0.0390625H38.4574C37.9915 0.0390625 37.6125 0.418094 37.6125 0.883937V2.87416H36.18V0.883937C36.18 0.418094 35.801 0.0390625 35.3351 0.0390625H32.6772C32.2113 0.0390625 31.8323 0.418094 31.8323 0.883937V6.81888C31.8323 7.27047 31.9718 7.70284 32.236 8.06931L34.1444 10.717V12.9541H30.7246C30.1908 12.9541 29.7564 13.3884 29.7564 13.9223V16.0754H26.9348V13.9223C26.9348 13.3884 26.5005 12.9541 25.9666 12.9541H22.0027C21.4688 12.9541 21.0344 13.3884 21.0344 13.9223V16.0754H18.2128V13.9223C18.2128 13.3884 17.7785 12.9541 17.2446 12.9541H13.823V10.717L15.7313 8.06922C15.9953 7.70275 16.1348 7.27038 16.1348 6.81888V0.883937C16.1348 0.418094 15.7558 0.0390625 15.29 0.0390625H12.6321C12.1662 0.0390625 11.7872 0.418094 11.7872 0.883937V2.87416H10.3545V0.883937C10.3545 0.418094 9.97547 0.0390625 9.50962 0.0390625H6.77803C6.31219 0.0390625 5.93316 0.418094 5.93316 0.883937V2.87416H4.50047V0.883937C4.50047 0.418094 4.12144 0.0390625 3.65559 0.0390625H0.997688C0.531844 0.0390625 0.152812 0.418094 0.152812 0.883937V2.37372C0.152812 2.761 0.466781 3.07497 0.854062 3.07497C1.24134 3.07497 1.55531 2.761 1.55531 2.37372V1.44147H3.09806V3.43169C3.09806 3.89753 3.47709 4.27656 3.94294 4.27656H6.49078C6.95662 4.27656 7.33566 3.89753 7.33566 3.43169V1.44147H8.95219V3.43169C8.95219 3.89753 9.33122 4.27656 9.79706 4.27656H12.3448C12.8107 4.27656 13.1897 3.89753 13.1897 3.43169V1.44147H14.7324V6.81878C14.7324 6.97422 14.6843 7.12309 14.5935 7.24919L12.7626 9.78925H3.52509L1.69425 7.24919C1.60331 7.12309 1.55531 6.97422 1.55531 6.81878V5.61541C1.55531 5.22813 1.24134 4.91416 0.854062 4.91416C0.466781 4.91416 0.152812 5.22813 0.152812 5.61541V6.81878C0.152812 7.27047 0.292406 7.70284 0.5565 8.06922L2.46487 10.7169V41.8075H2.13262C0.956719 41.8075 0 42.7642 0 43.9402V46.807C0 47.4431 0.5175 47.9606 1.15359 47.9606H46.8465C47.4825 47.9606 48.0001 47.4431 48.0001 46.807V43.9402C48 42.7642 47.0433 41.8075 45.8673 41.8075ZM33.3737 7.24919C33.2827 7.123 33.2347 6.97422 33.2347 6.81878V1.44147H34.7776V3.43169C34.7776 3.89753 35.1566 4.27656 35.6225 4.27656H38.1702C38.6362 4.27656 39.0152 3.89753 39.0152 3.43169V1.44147H40.6317V3.43169C40.6317 3.89753 41.0107 4.27656 41.4766 4.27656H44.0243C44.4902 4.27656 44.8692 3.89753 44.8692 3.43169V1.44147H46.412V6.81878C46.412 6.97422 46.364 7.123 46.273 7.24919L44.4422 9.78925H35.2045L33.3737 7.24919ZM44.0998 11.1917V41.6685H35.5469V11.1917H44.0998ZM13.8246 14.3564H16.8102V16.5094C16.8102 17.0433 17.2446 17.4777 17.7785 17.4777H21.4685C22.0024 17.4777 22.4367 17.0433 22.4367 16.5094V14.3564H25.5323V16.5094C25.5323 17.0433 25.9667 17.4777 26.5005 17.4777H30.1905C30.7244 17.4777 31.1587 17.0433 31.1587 16.5094V14.3564H34.1443V41.6685H30.4757V38.1248C30.4757 37.7375 30.1618 37.4236 29.7744 37.4236C29.3871 37.4236 29.0732 37.7375 29.0732 38.1248V41.6685H24.7103V26.7643C27.1731 27.115 29.0732 29.2374 29.0732 31.7956V34.8531C29.0732 35.2404 29.3871 35.5544 29.7744 35.5544C30.1618 35.5544 30.4757 35.2404 30.4757 34.8531V31.7956C30.4757 28.2322 27.5866 25.3318 24.0279 25.3115C24.0217 25.3113 24.0156 25.3106 24.0092 25.3106C24.0061 25.3106 24.003 25.3108 23.9999 25.3109C23.9968 25.3109 23.9937 25.3106 23.9906 25.3106C23.9843 25.3106 23.9782 25.3113 23.9719 25.3115C20.4132 25.3318 17.5241 28.2322 17.5241 31.7956V41.6685H13.8244V14.3564H13.8246ZM23.2895 26.7643V41.6685H18.9267V31.7957C18.9267 29.2375 20.8267 27.1151 23.2895 26.7643ZM3.86737 11.1917H12.4203V41.6685H3.86737V11.1917ZM46.5976 46.5581H1.40241V43.9402C1.40241 43.5376 1.72997 43.21 2.13262 43.21H45.8673C46.2699 43.21 46.5976 43.5376 46.5976 43.9402V46.5581Z" fill="#E2B184"/>
<path id="Vector_16" d="M6.85187 21.0971H9.43375C9.94656 21.0971 10.3637 20.6799 10.3637 20.1671V17.9503C10.3637 16.7258 9.36737 15.7295 8.14272 15.7295C6.91816 15.7295 5.92188 16.7258 5.92188 17.9503V20.1671C5.92188 20.6799 6.33906 21.0971 6.85187 21.0971ZM7.32438 17.9502C7.32438 17.4989 7.6915 17.1318 8.14281 17.1318C8.59412 17.1318 8.96125 17.4989 8.96125 17.9502V19.6946H7.32438V17.9502Z" fill="#E2B184"/>
<path id="Vector_17" d="M8.14272 31.7637C6.91816 31.7637 5.92188 32.76 5.92188 33.9845V36.2013C5.92188 36.7141 6.33906 37.1312 6.85178 37.1312H9.43366C9.94647 37.1312 10.3636 36.714 10.3636 36.2013V33.9845C10.3636 32.76 9.36737 31.7637 8.14272 31.7637ZM8.96116 35.7288H7.32428V33.9845C7.32428 33.5332 7.69141 33.1661 8.14272 33.1661C8.59403 33.1661 8.96116 33.5332 8.96116 33.9845V35.7288Z" fill="#E2B184"/>
<path id="Vector_18" d="M7.68563 23.7041C7.29834 23.7041 6.98438 24.0181 6.98438 24.4054C6.98438 24.7926 7.29834 25.1066 7.68563 25.1066H8.60391C8.99119 25.1066 9.30516 24.7926 9.30516 24.4054C9.30516 24.0181 8.99119 23.7041 8.60391 23.7041H7.68563Z" fill="#E2B184"/>
<path id="Vector_19" d="M7.38719 28.4552C7.38719 28.0679 7.07322 27.7539 6.68594 27.7539H5.76766C5.38037 27.7539 5.06641 28.0679 5.06641 28.4552C5.06641 28.8424 5.38037 29.1564 5.76766 29.1564H6.68594C7.07322 29.1564 7.38719 28.8424 7.38719 28.4552Z" fill="#E2B184"/>
<path id="Vector_20" d="M10.518 27.7539H9.59969C9.21241 27.7539 8.89844 28.0679 8.89844 28.4552C8.89844 28.8424 9.21241 29.1564 9.59969 29.1564H10.518C10.9053 29.1564 11.2192 28.8424 11.2192 28.4552C11.2192 28.0679 10.9053 27.7539 10.518 27.7539Z" fill="#E2B184"/>
<path id="Vector_21" d="M6.34609 7.6232C6.73338 7.6232 7.04734 7.30923 7.04734 6.92195C7.04734 6.53467 6.73338 6.2207 6.34609 6.2207H5.42781C5.04053 6.2207 4.72656 6.53467 4.72656 6.92195C4.72656 7.30923 5.04053 7.6232 5.42781 7.6232H6.34609Z" fill="#E2B184"/>
<path id="Vector_22" d="M11.3109 7.6232C11.6982 7.6232 12.0122 7.30923 12.0122 6.92195C12.0122 6.53467 11.6982 6.2207 11.3109 6.2207H10.3927C10.0054 6.2207 9.69141 6.53467 9.69141 6.92195C9.69141 7.30923 10.0054 7.6232 10.3927 7.6232H11.3109Z" fill="#E2B184"/>
</g>
</g>
</g>
</svg>
