<svg width="32" height="33" viewBox="0 0 32 33" fill="none" xmlns="http://www.w3.org/2000/svg">
<g clip-path="url(#clip0_479_26664)">
<path fill-rule="evenodd" clip-rule="evenodd" d="M15.9962 6.30069C19.0407 6.30069 21.5087 8.76875 21.5087 11.8132C21.5087 14.8577 19.0407 17.3257 15.9962 17.3257C12.9517 17.3257 10.4837 14.8577 10.4837 11.8132C10.4837 8.76881 12.9517 6.30069 15.9962 6.30069ZM16.4962 21.9353V32.2802L26.7006 28.3126V21.8433L18.7216 24.9458C18.4895 25.0356 18.2313 24.9397 18.1106 24.7307L16.4962 21.9353ZM15.4962 32.2802V21.9353L13.8822 24.7309C13.7534 24.9531 13.4796 25.0388 13.2501 24.9376L5.29194 21.8433V28.3125L15.4962 32.2802ZM26.9821 16.3347L16.7187 20.3254L18.7601 23.8613L29.0236 19.8706L26.9821 16.3347ZM15.2737 20.3254L5.01019 16.3347L2.96875 19.8706L13.2323 23.8613L15.2737 20.3254ZM15.9962 18.3257C13.2585 18.3257 10.9154 16.6364 9.95225 14.2434L6.16706 15.7151L15.9962 19.537L25.8253 15.7151L22.0401 14.2434C21.0771 16.6364 18.7339 18.3257 15.9962 18.3257ZM26.0606 11.4448C26.3369 11.4448 26.5606 11.6687 26.5606 11.9448C26.5606 12.2209 26.3369 12.4448 26.0606 12.4448H23.7189C23.4428 12.4448 23.2189 12.2209 23.2189 11.9448C23.2189 11.6687 23.4428 11.4448 23.7189 11.4448H26.0606ZM15.4962 1.61719C15.4962 1.34106 15.7201 1.11719 15.9962 1.11719C16.2723 1.11719 16.4962 1.34106 16.4962 1.61719V3.959C16.4962 4.23513 16.2723 4.459 15.9962 4.459C15.7201 4.459 15.4962 4.23513 15.4962 3.959V1.61719ZM10.4489 3.16537C10.3119 2.92706 10.3941 2.62269 10.6325 2.48569C10.8709 2.34875 11.1752 2.43094 11.3122 2.66931L12.4831 4.69738C12.6201 4.93575 12.5379 5.24012 12.2994 5.37706C12.0611 5.514 11.7567 5.43188 11.6198 5.19344L10.4489 3.16537ZM6.85037 7.03288C6.612 6.89481 6.53069 6.58956 6.66875 6.35125C6.80675 6.11294 7.112 6.0315 7.35038 6.16963L9.37838 7.3405C9.61669 7.47856 9.69806 7.78381 9.56 8.02213C9.422 8.26044 9.11669 8.34181 8.87838 8.20375L6.85037 7.03288ZM5.66856 12.1816C5.39244 12.1816 5.16856 11.9578 5.16856 11.6816C5.16856 11.4055 5.39244 11.1816 5.66856 11.1816H8.01031C8.2865 11.1816 8.51031 11.4055 8.51031 11.6816C8.51031 11.9578 8.2865 12.1816 8.01031 12.1816H5.66856ZM20.6449 2.80087C20.7819 2.56256 21.0863 2.48031 21.3247 2.61725C21.563 2.75419 21.6452 3.05862 21.5083 3.29694L20.3374 5.325C20.2004 5.56338 19.8961 5.64556 19.6577 5.50863C19.4194 5.37169 19.3371 5.06731 19.4741 4.82894L20.6449 2.80087ZM24.5105 6.3975C24.7489 6.25938 25.0541 6.34081 25.1921 6.57912C25.3302 6.81744 25.2487 7.12269 25.0105 7.26075L22.9824 8.43162C22.7441 8.56969 22.4389 8.48831 22.3008 8.25C22.1627 8.01169 22.2442 7.70644 22.4824 7.56838L24.5105 6.3975ZM18.0834 9.29931L14.818 12.5648L13.7036 11.1624C13.4295 10.8176 12.9277 10.7603 12.5829 11.0344C12.2381 11.3086 12.1807 11.8102 12.4549 12.1551L14.0948 14.2188C14.3784 14.625 14.9623 14.6806 15.3157 14.3271L19.2134 10.4294C19.5254 10.1174 19.5254 9.61144 19.2134 9.29931C18.9014 8.98731 18.3955 8.98731 18.0834 9.29931Z" fill="url(#paint0_linear_479_26664)"/>
</g>
<defs>
<linearGradient id="paint0_linear_479_26664" x1="2.96875" y1="1.11719" x2="30.4177" y2="2.39778" gradientUnits="userSpaceOnUse">
<stop stop-color="#D0A862"/>
<stop offset="0.411458" stop-color="#F3D283"/>
<stop offset="0.71875" stop-color="#D0A862"/>
<stop offset="1" stop-color="#F3D283"/>
</linearGradient>
<clipPath id="clip0_479_26664">
<rect width="32" height="32" fill="white" transform="translate(0 0.699219)"/>
</clipPath>
</defs>
</svg>
