<svg width="32" height="32" viewBox="0 0 32 32" fill="none" xmlns="http://www.w3.org/2000/svg">
<path fill-rule="evenodd" clip-rule="evenodd" d="M17.8951 1.82216L19.8005 3.24841C20.3216 3.63847 20.8701 3.83809 21.52 3.87428L23.8963 4.00647C25.3193 4.08559 26.475 5.05528 26.8 6.44291L27.3428 8.76022C27.4913 9.39397 27.7831 9.89947 28.2578 10.3449L29.9932 11.9737C31.0323 12.949 31.2943 14.4347 30.6514 15.7065L29.5777 17.8306C29.2841 18.4115 29.1827 18.9863 29.26 19.6327L29.5425 21.9959C29.7116 23.411 28.9573 24.7174 27.6473 25.2785L25.4594 26.2155C24.861 26.4717 24.4139 26.8469 24.0576 27.3917L22.755 29.3835C21.975 30.5762 20.5573 31.0922 19.1932 30.6799L16.915 29.9914C16.2919 29.8031 15.7082 29.8031 15.0851 29.9914L12.8068 30.6799C11.4427 31.0922 10.0251 30.5762 9.24509 29.3835L7.9424 27.3917C7.58609 26.8469 7.13896 26.4717 6.54065 26.2155L4.35265 25.2783C3.04265 24.7173 2.28834 23.4108 2.45746 21.9958L2.73996 19.6325C2.81721 18.9862 2.71584 18.4114 2.42221 17.8305L1.34852 15.7064C0.705649 14.4346 0.967586 12.9489 2.00671 11.9736L3.74215 10.3448C4.21677 9.89934 4.50859 9.39384 4.65702 8.76009L5.1999 6.44278C5.5249 5.05522 6.68059 4.08553 8.10352 4.00634L10.4798 3.87416C11.1298 3.83803 11.6783 3.63834 12.1994 3.24828L14.1048 1.82203C15.2456 0.968156 16.7542 0.968156 17.8951 1.82216ZM14.7845 16.8171L12.7167 14.7493C12.1808 14.2134 11.3115 14.2134 10.7756 14.7493C10.2396 15.2853 10.2396 16.1545 10.7756 16.6905L13.8169 19.7317C14.3528 20.2676 15.2221 20.2677 15.758 19.7317C17.5911 17.8985 19.4035 16.0448 21.2282 14.2032C21.7603 13.6662 21.7586 12.7997 21.2223 12.2664C20.6859 11.733 19.8169 11.7345 19.2843 12.2724L14.7845 16.8171ZM15.9999 5.77922C13.1773 5.77922 10.6219 6.92334 8.77215 8.77309C6.9224 10.6229 5.77827 13.1783 5.77827 16.0008C5.77827 18.8234 6.9224 21.3788 8.77215 23.2286C10.6219 25.0783 13.1773 26.2225 15.9999 26.2225C18.8225 26.2225 21.3779 25.0783 23.2276 23.2286C25.0774 21.3788 26.2215 18.8234 26.2215 16.0008C26.2215 13.1783 25.0774 10.6228 23.2276 8.77309C21.3779 6.92334 18.8225 5.77922 15.9999 5.77922ZM22.5206 9.48016C20.8518 7.81141 18.5464 6.77922 15.9999 6.77922C13.4534 6.77922 11.148 7.81141 9.47921 9.48016C7.81046 11.1489 6.77827 13.4543 6.77827 16.0008C6.77827 18.5473 7.81046 20.8528 9.47921 22.5215C11.148 24.1903 13.4534 25.2225 15.9999 25.2225C18.5464 25.2225 20.8518 24.1903 22.5206 22.5216C24.1893 20.8528 25.2215 18.5474 25.2215 16.0009C25.2215 13.4543 24.1893 11.1489 22.5206 9.48016Z" fill="url(#paint0_linear_479_26650)"/>
<defs>
<linearGradient id="paint0_linear_479_26650" x1="1" y1="1.18164" x2="32.5732" y2="2.96491" gradientUnits="userSpaceOnUse">
<stop stop-color="#D0A862"/>
<stop offset="0.411458" stop-color="#F3D283"/>
<stop offset="0.71875" stop-color="#D0A862"/>
<stop offset="1" stop-color="#F3D283"/>
</linearGradient>
</defs>
</svg>
