<svg width="18" height="15" viewBox="0 0 18 15" fill="none" xmlns="http://www.w3.org/2000/svg">
<path id="Vector" d="M16.9922 6.73969L8.1375 0.0792186C8.06953 0.0284374 7.98281 0 7.89141 0H5.81719C5.64375 0 5.56406 0.186875 5.69531 0.284375L13.9031 6.45937H0.1875C0.084375 6.45937 0 6.5325 0 6.62187V7.84062C0 7.93 0.084375 8.00312 0.1875 8.00312H13.9008L5.69297 14.1781C5.56172 14.2777 5.64141 14.4625 5.81484 14.4625H7.95938C8.00391 14.4625 8.04844 14.4483 8.08125 14.4219L16.9922 7.72281C17.0733 7.66166 17.1384 7.58614 17.183 7.50134C17.2275 7.41654 17.2506 7.32444 17.2506 7.23125C17.2506 7.13806 17.2275 7.04596 17.183 6.96116C17.1384 6.87636 17.0733 6.80084 16.9922 6.73969Z" fill="#0A0603"/>
</svg>
