<svg width="16" height="16" viewBox="0 0 16 16" fill="none" xmlns="http://www.w3.org/2000/svg">
<path id="Vector" d="M15.2298 10.7567L11.4609 9.06793L11.4505 9.06313C11.2549 8.97944 11.0414 8.94586 10.8295 8.96541C10.6176 8.98497 10.4139 9.05705 10.2369 9.17513C10.2161 9.18889 10.196 9.20385 10.1769 9.21993L8.22969 10.8799C6.99608 10.2807 5.72246 9.01673 5.12326 7.79911L6.78567 5.82229C6.80167 5.80229 6.81687 5.78229 6.83127 5.76069C6.94682 5.58413 7.01692 5.38175 7.03534 5.17155C7.05377 4.96135 7.01994 4.74985 6.93687 4.55588V4.54628L5.24326 0.771045C5.13345 0.517655 4.94464 0.306573 4.705 0.169311C4.46537 0.0320479 4.18777 -0.0240334 3.91365 0.0094382C2.82961 0.152085 1.83457 0.684459 1.11436 1.50713C0.394161 2.3298 -0.00195276 3.3865 7.23898e-06 4.47988C7.23898e-06 10.8319 5.16806 16 11.5201 16C12.6135 16.002 13.6702 15.6058 14.4929 14.8856C15.3155 14.1654 15.8479 13.1704 15.9906 12.0864C16.0241 11.8123 15.9681 11.5348 15.831 11.2952C15.6939 11.0556 15.483 10.8667 15.2298 10.7567ZM11.5201 14.72C8.80519 14.717 6.2023 13.6372 4.28255 11.7174C2.3628 9.7977 1.28298 7.19481 1.28002 4.47988C1.27701 3.69867 1.55846 2.94306 2.07182 2.35419C2.58517 1.76531 3.29532 1.38342 4.06965 1.27985C4.06933 1.28304 4.06933 1.28626 4.06965 1.28945L5.74966 5.04949L4.09605 7.02871C4.07926 7.04802 4.06402 7.06861 4.05045 7.09031C3.93006 7.27504 3.85943 7.48775 3.84542 7.7078C3.8314 7.92786 3.87447 8.1478 3.97045 8.34632C4.69525 9.82873 6.18887 11.3111 7.68728 12.0352C7.88726 12.1302 8.10847 12.1718 8.32932 12.1558C8.55017 12.1398 8.7631 12.0668 8.94729 11.944C8.96783 11.9301 8.9876 11.9152 9.0065 11.8992L10.9513 10.2399L14.7114 11.924H14.7202C14.6178 12.6994 14.2365 13.411 13.6475 13.9256C13.0586 14.4402 12.3023 14.7226 11.5201 14.72Z" fill="#E2B184"/>
</svg>
