<svg width="16" height="20" viewBox="0 0 16 20" fill="none" xmlns="http://www.w3.org/2000/svg">
<g id="Group">
<path id="Vector" d="M15.3102 19.4125H11.923C11.6469 18.8316 10.582 18.4613 9.67734 18.3934V15.643C9.67734 14.9723 10.0156 14.0816 10.643 13.75L10.7187 13.7109C11.8684 13.1961 12.6715 12.0379 12.6715 10.6949C12.6715 9.90156 12.5609 9.21016 12.3129 8.45351L11.675 6.50664C11.6355 6.38594 11.5227 6.3043 11.3957 6.3043H7.37226C7.24531 6.3043 7.13242 6.38594 7.09297 6.50664L6.45508 8.45351C6.20703 9.21055 6.09648 9.90156 6.09648 10.6949C6.09648 12.0375 6.89922 13.1953 8.04766 13.7105L8.12187 13.7492C8.75039 14.0797 9.08906 14.9715 9.08906 15.6434V18.3937C8.18477 18.4617 7.1207 18.832 6.84453 19.4129H6.22344C6.30664 19.0742 6.56289 18.6312 7.275 18.2734C7.62773 18.0961 8.05625 17.959 8.50078 17.8777V16.2117H3.91836V12.4953H5.95039C5.66562 11.9496 5.5082 11.3348 5.5082 10.6957C5.5082 9.8375 5.62773 9.08945 5.89609 8.27109L6.53398 6.32422C6.65312 5.96094 6.98984 5.7168 7.37226 5.7168H7.97344C7.92539 5.53789 7.88516 5.3582 7.85391 5.17578H5.15547C5.06719 5.69141 4.9125 6.18594 4.68203 6.70078L3.78047 8.71367C3.46523 9.41992 3.33086 10.1383 3.33086 11.1156V11.9074V16.7992V19.2191C3.33086 19.2863 3.34023 19.3508 3.35625 19.4129H0.692187C0.529688 19.4129 0.398438 19.5445 0.398438 19.7066C0.398438 19.8691 0.530078 20.0004 0.692187 20.0004H15.3105C15.473 20.0004 15.6043 19.8687 15.6043 19.7066C15.6043 19.5441 15.4727 19.4125 15.3102 19.4125ZM6.73672 9.83516C6.78789 9.4375 6.87734 9.05234 7.01367 8.63633L7.58516 6.89219H11.1828L11.7543 8.63633C11.8906 9.05234 11.9805 9.4375 12.0312 9.83516H6.73672Z" fill="#E2B184"/>
<path id="Vector_2" d="M7.76641 0.537891C7.76641 0.241406 7.52539 0 7.22891 0H5.78672C5.49063 0 5.25 0.241406 5.25 0.537891V1.36836H7.7668V0.537891H7.76641Z" fill="#E2B184"/>
<path id="Vector_3" d="M7.76289 4.28555C7.76094 4.21133 7.75977 4.13594 7.75977 4.06094V1.95703H5.24297V4.06094C5.24297 4.14492 5.2418 4.21484 5.23906 4.28164L5.22656 4.5875H7.7707L7.76289 4.28555Z" fill="#E2B184"/>
<path id="Vector_4" d="M6.50469 15.2492C6.99883 15.2492 7.40078 14.8473 7.40078 14.3531C7.40078 13.859 6.99883 13.457 6.50469 13.457C6.01094 13.457 5.60938 13.859 5.60938 14.3531C5.60938 14.8473 6.01094 15.2492 6.50469 15.2492Z" fill="#E2B184"/>
</g>
</svg>
